<?xml version="1.0" encoding="utf-8"?>
<!DOCTYPE svg PUBLIC "-//W3C//DTD SVG 1.1//EN" "http://www.w3.org/Graphics/SVG/1.1/DTD/svg11.dtd">
<svg version="1.1" id="Layer_1" xmlns="http://www.w3.org/2000/svg" xmlns:xlink="http://www.w3.org/1999/xlink" x="0px" y="0px"
	 viewBox="496.7538 64.7079 888.2462 1825.2438" enable-background="new 496.7538 64.7079 888.2462 1825.2438" xml:space="preserve"
	>
<g id="_x23_ffffffff">
</g>
<g>
	<path fill="#F83B5B" stroke="#F83B5B" stroke-width="0.0938" d="M599.99,140.03c7.72-10.73,20.08-17.54,33.09-19.28
		c22.12-2.58,45.31,1.97,64.17,14.02c12.09,7.57,22.23,17.89,30.9,29.14c10.35,13.46,18.85,28.21,27.1,43.02
		c10.19,18.7,18.03,38.79,21.91,59.78c7.6,42.04,1.26,86.69-18.99,124.44c-18.26,34.87-45.13,64.02-69.78,94.36
		c-22.96,28.06-44.79,57.81-58.15,91.79c-8.81,22.09-13.33,45.87-12.89,69.66c-0.28,18.77,4.77,38.16,16.72,52.92
		c9,9.91,20.96,17.06,33.83,20.7c9.09,2.43,19.25,3.04,28.06-0.75c7.77-4.09,12.5-11.97,16.28-19.59
		c8.49-18.05,13.17-37.57,21.2-55.81c10.34-24.2,30.23-42.85,51.81-57.2c12.06-7.88,24.5-15.26,37.5-21.5
		c19.8-9.14,41.54-13.52,63.26-14.29c29.56-0.94,59.41,0.9,88.14,8.29c40.3199,9.89,77.51,29.13,113.1699,49.92
		c17.91,10.29,35.25,21.64,51.3401,34.61c13.3199,10.63,25.63,22.45,37.4199,34.73c8.49,8.57,15.4,18.53,23.5701,27.39
		c26.16,27.46,58.2999,48.18,85.6799,74.3c10.9801,10.69,21.4,21.94,31.53,33.44c7.03,7.98,13.5,16.46,21.0601,23.97
		c9.63,10.15,19.25,22.09,20.12,36.66c-17.8201-0.58-32.7101-11.51-47.24-20.61c-17.02-11.28-36.53-17.75-55.15-25.77
		c-18.1801-7.73-36.86-15.3-56.73-17.04c-11.77-1.58-23.7001-0.72-35.38,1.08c-22.8201,4.56-44.14,14.31-66.51,20.5
		c-17.72,5.58-36.24,9-53.04,17.2c-12.5599,5.79-24.23,13.27-36.27,20.03c-7.87,4.44-15.77,8.91-24.17,12.29
		c-4.02,1.59-8.06,3.57-12.47,3.58c-11.06,0.11-22.07,1.18-33.11,1.65c-13.6899,0.11-27.27,2.98-40.98,1.92
		c-4.23-0.6-8.05-2.65-11.84-4.48c-9.19-4.46-16.9301-11.22-25.57-16.56c-11.21-6.9-24.63-8.65-37.52-9.28
		c-8.68-0.96-17.44-0.63-26.11-1.58c-26.26-2.98-52.45-6.76-78.31-12.22c-28.19-6.06-56.13-14.2-82.02-27.04
		c-22.74-11.2-43.8-26.37-60.06-45.95c-18.07-21.6-30.01-48.02-35.63-75.54c-3.92-23.82-2.06-48.18,0.96-72.01
		c5.12-38.96,22.61-75.2,44.88-107.17c12.69-18.4,26.88-35.7,40.98-53.02c13.4-16.57,26.99-32.99,40.38-49.57
		c19.66-24.36,39.89-49.12,51.44-78.58c7.54-19.09,10.99-40.1,8.02-60.52c-1.45-11.42-4.83-22.56-9.44-33.1
		c-3.21-7.03-7.22-13.87-12.84-19.24c-4.11-3.93-10.27-6.7-15.84-4.19c-15.11,5.72-25.45,19.3-40.2,25.69
		c-10.94,5.36-23.16,7.94-33.42,14.66c-10.64,6.66-18.46,17.09-23.39,28.52c-2.23,5.13-3.78,10.52-5.48,15.84
		c-4.77-2.49-9.35-5.31-14.13-7.76l-0.6,0.11c4.88-5.32,1.07-13.97,6.44-18.91c13.42-13.29,24.13-29.09,38.02-41.94
		c-3.27-6.1-6.54-12.33-7.68-19.24c-1.72,0.21-3.67,1.04-5.2-0.2c-3.32-2.16-6.87-3.91-10.73-4.85c-2.24,1.45-4.42,3.16-7.05,3.83
		c-2.41-0.13-4.55-1.47-6.92-1.81c-1.61,0.47-3.06,1.36-4.55,2.08c-0.09-1.64-0.18-3.28-0.27-4.91c-2.19,2.03-4.31,4.15-6.41,6.29
		c-0.31-0.48-0.95-1.45-1.27-1.94c-1.26-1.38,0.67-2.9,1.53-3.9c4.66-3.92,6.28-10.03,8.71-15.37
		C583.56,177.05,587.76,156.51,599.99,140.03 M619.05,150.28c-1.09,0.87-4.73,1.43-2.66,3.15c4.51-0.18,8.95-1.72,13.49-0.97
		c5.35,0.79,10.75,1.58,16.17,1.09c-2.12-2.81-4.56-5.9-8.47-5.82C631.36,147.18,624.62,147.05,619.05,150.28 M646.91,170.11
		c-2.93,8.33-7.45,16.31-14.49,21.84c-4.28,2.03-8.53,4.92-13.5,3.32c-4.48-2.92-8.77-6.41-14.02-7.83c-3.23-1.03-6.64-1.18-10-1.37
		c0.34,2.8,0.43,5.74,1.9,8.24c3.2,6.51,10.58,9.64,13.56,16.31c9.46-0.32,18.83-3.25,26.79-8.38c9.22-6.11,15.23-16.34,16.87-27.2
		C651.83,173.14,649.91,170.68,646.91,170.11 M909.5,577.43c1.27,1.11,2.83,1.86,4.53,2.05c13.61,1.8,27.1,4.48,40.41,7.81
		c37.1,9.07,73.17,23.2401,105.43,43.83c28.9301,18.42,54.76,43,70.67,73.7c8.02,17.63,13.45,36.75,13.9399,56.19
		c0.0701,7.75-0.33,16.54-5.89,22.55c-4.63,4.67-11.95,3.52-17.5299,1.48c-9.4501-3.87-17.7401-10.05-25.5801-16.48
		c-1.74-1.22-2.63-3.16-2.96-5.19c-3.5601-19.36-11.63-37.8-23.74-53.35c-10.53-13.94-23.17-26.26-37.14-36.75
		c-32.99-24.63-71.8-40.46-111.57-50.32c-2.42-0.56-4.83-1.41-7.32-1.3c-9.67-4.4301-20.2-6.54-30.5-8.9301
		c-7.92-1.22-15.76-3.48-23.83-3.27c2.44,1.89,5.6,2.08,8.55,2.46c8.25,0.95,16.38,2.76,24.41,4.84c-4.01-0.39-7.99-1.02-12.01-1.13
		c0.42,0.38,1.28,1.15,1.7,1.53c4.58,1.1,9.35,1.29,13.95,2.35c4.9,0.65,9.65,2.4,14.61,2.44c1.38,0.46,2.76,0.9,4.18,1.29
		c33.25,7.58,65.71,19.45,95.1,36.88c27.7601,16.49,52.9901,38.58,69.04,66.92c9.0601,16.55,13.8101,35.25,15.3,53.99
		c0.05,7.51-0.26,15.97-5.3101,22.02c-3.75,4.06-10.0699,3.44-14.84,1.84c-9.37-3.46-17.4-9.61-25.03-15.89
		c-2.6899-2.31-6.2999-4.27-7-8.06c-2.6699-10.46-6.3899-20.73-11.99-30c-7.64-12.63-17.3199-23.97-28.14-33.99
		c-27.77-25.34-62.54-41.79-98.27-52.55c-3.01-1.58-5.93-3.44-9.22-4.32c-4.52-2.72-9.62-4.15-14.54-5.89
		c-13.58-4.72-27.71-7.76-41.97-9.52c-1.61-0.3799-3.24-0.05-4.49,1.06c5.29,1.42,10.78,1.82,16.15,2.8701
		c3.72,3.1,8.92,2.67,13.37,3.95c-2.7599,0.23-5.5099,0.4901-8.25,0.8c-1.86-0.21-4.04-0.6-5.2599,1.2c6.43,1.31,13,1.82,19.42,3.26
		c5.19,0.84,10.25,2.49,15.5,3.03c5.46,1.25,10.77,3.26,16.31,4.17c6.19,2.3,12.58,4.01,18.78,6.31
		c32.45,11.61,63.51,28.67,87.9901,53.24c12.62,13.44,24.1199,28.6,29.9,46.32c3.65,11.36,6.6,23.15,6.48,35.16
		c0.04,5.37-0.39,11.03-3.23,15.73c-1.95,3.25-5.95,4.79-9.62,4.41c-5.77-0.46-10.93-3.43-15.72-6.45
		c-9.61-6.2-17.99-14.03-26.68-21.39c-2.67-2.35-5.72-4.7-6.72-8.28c-2.25-7.33-5.12-14.51-9.17-21.04
		c-13.88-22.8-34.58-40.87-57.56-54.14c-20.64-12.01-43.04-20.83-66.1-26.96c-13.62-3.68-27.4-7.93-41.6-8.15
		c0.99,0.91,2.09,1.93,3.53,2.08c40.17,5.98,80.01,18.53,114.03,41.15c14.09,9.58,27.15,20.9,37.65,34.37
		c8.18,10.35,14.66,22.1,18.17,34.86c2.97,11.1801,5.66,22.91,3.84,34.52c-0.74,4.7-3.3799,10.14-8.62,10.84
		c-7.1,0.25-13.44-3.59-19.06-7.48c-29.68-21.68-53.46-50.0099-80.18-74.98c-14.47-13.16-29.97-25.43-47.53-34.22
		c-16.45-8.46-34.45-13.58-52.71-16.3c-2.15-0.2599-4.34-0.28-6.49-0.22c2.59,1.88,5.92,1.82,8.96,2.34
		c17.12,2.69,33.9399,7.78,49.42,15.65c10.97,5.7,21.4,12.45,31.06,20.18c29.74,23.77,53.61,53.87,82.87,78.18
		c7.18,5.84,14.2,12.16,22.7,16.07c4,1.68,8.56,3.27,12.9,1.91c4.62-1.45,7.19-6.19,8.14-10.65c2.17-10.49-0.29-21.07-2.04-31.41
		c10.07,8.69,19.91,17.7599,31.1,25.03c6.06,3.68,13.1,7.52,20.44,5.8c5.91-1.63,8.58-7.89,9.48-13.42
		c1.3101-9.06,0.1-18.26-1.62-27.18c7.53,5.31,14.24,11.82,22.4501,16.14c5.5199,2.87,11.6899,5.63,18.08,4.5
		c5.15-0.91,8.64-5.71,10.11-10.44c2.61-8.9,1.36-18.25,0.95-27.35c5.9701,4.53,11.7401,9.37,18.3601,12.97
		c6.4099,3.81,13.8899,6.95,21.49,5.4c5.34-1.12,8.75-6.14,10.3199-11.05c2.89-9.11,2.15-18.89,1.01-28.24
		c-2.76-18.37-8.1-36.63-17.5699-52.71c-17.1101-28.63-42.5601-51.46-70.7401-68.9C1022.03,605.79,983.03,591.63,943.12,582.9
		C931.96,580.83,920.85,578.16,909.5,577.43z"/>
	<path fill="#FEFDFE" stroke="#FEFDFE" stroke-width="0.0938" d="M619.05,150.28c5.57-3.23,12.31-3.1,18.53-2.55
		c2.58,1.24,4.76,3.1,6.93,4.93c-8.99-0.4-17.95-1.01-26.95-0.9C617.93,151.39,618.68,150.65,619.05,150.28z"/>
	<path fill="#E5798B" stroke="#E5798B" stroke-width="0.0938" d="M637.58,147.73c3.91-0.08,6.35,3.01,8.47,5.82
		c-5.42,0.49-10.82-0.3-16.17-1.09c-4.54-0.75-8.98,0.79-13.49,0.97c-2.07-1.72,1.57-2.28,2.66-3.15c-0.37,0.37-1.12,1.11-1.49,1.48
		c9-0.11,17.96,0.5,26.95,0.9C642.34,150.83,640.16,148.97,637.58,147.73z"/>
	<path fill="#FCFDFD" stroke="#FCFDFD" stroke-width="0.0938" d="M646.91,170.11c3,0.57,4.92,3.03,7.11,4.93
		c-1.64,10.86-7.65,21.09-16.87,27.2c-7.96,5.13-17.33,8.06-26.79,8.38c-2.98-6.67-10.36-9.8-13.56-16.31
		c-1.47-2.5-1.56-5.44-1.9-8.24c3.36,0.19,6.77,0.34,10,1.37c5.25,1.42,9.54,4.91,14.02,7.83c1.39,0.84,2.78,1.73,4.34,2.24
		c3.56-0.78,6.39-3.34,9.16-5.56C639.46,186.42,643.98,178.44,646.91,170.11z"/>
	<path fill="#DE7486" stroke="#DE7486" stroke-width="0.0938" d="M618.92,195.27c4.97,1.6,9.22-1.29,13.5-3.32
		c-2.77,2.22-5.6,4.78-9.16,5.56C621.7,197,620.31,196.11,618.92,195.27z"/>
	<path fill="#EEB9BF" stroke="#EEB9BF" stroke-width="0.0938" d="M566.9,216.93c2.1-2.14,4.22-4.26,6.41-6.29
		c0.09,1.63,0.18,3.27,0.27,4.91c1.49-0.72,2.94-1.61,4.55-2.08c2.37,0.34,4.51,1.68,6.92,1.81c2.63-0.67,4.81-2.38,7.05-3.83
		c3.86,0.94,7.41,2.69,10.73,4.85c1.53,1.24,3.48,0.41,5.2,0.2c1.14,6.91,4.41,13.14,7.68,19.24
		c-13.89,12.85-24.6,28.65-38.02,41.94c-5.37,4.94-1.56,13.59-6.44,18.91c-0.41,0.11-1.25,0.32-1.67,0.43
		c-2.49-5.07-3.76-10.83-7.36-15.29c-1.37-2.17-4.22-1.07-6.3-1.64c-1.2-0.65-2.27-1.53-3.37-2.32c-1.26,1.17-2.51,2.36-3.74,3.56
		c2.28-6.16,5.26-12.09,9.33-17.27c9.61-12.73,23.35-21.57,33.02-34.24c-21.3199,12.12-37.93,31.09-50.2599,52.06
		c-1.84-6.51-1.51-13.36-3.08-19.92c0.75,0.56,2.25,1.68,3,2.23c-0.19-2.99-0.68-5.95-1.33-8.87c0.73,0.35,2.19,1.04,2.93,1.38
		c-0.44-3.14-0.63-6.4,1.21-9.15c0.95,1.26,1.9,2.52,2.85,3.79c-0.25-3.61-0.67-7.44,0.92-10.83c3.44-8.31,11.81-13.13,15.83-21.05
		c0.78-1.5,1.57-2.99,2.4-4.47C565.95,215.48,566.59,216.45,566.9,216.93 M546.03,259.23c3.78-0.6,6.79-3.6,7.33-7.4
		C549.31,252.17,547.05,255.65,546.03,259.23 M556.05,272.25c0.15,1.76,0.26,3.52,0.61,5.26c1.75,0.17,3.11-1.08,4.52-1.89
		c-0.01-1.66-0.01-3.3-0.02-4.95c-0.52-0.17-1.5699-0.52-2.09-0.69C558.06,270.74,557.05,271.5,556.05,272.25z"/>
	<path stroke="#000000" stroke-width="0.0938" d="M563.23,219.46c-4.02,7.92-12.39,12.74-15.83,21.05
		c-1.59,3.39-1.17,7.22-0.92,10.83c-0.95-1.27-1.9-2.53-2.85-3.79c-1.84,2.75-1.65,6.01-1.21,9.15c-0.74-0.34-2.2-1.03-2.93-1.38
		c0.65,2.92,1.14,5.88,1.33,8.87c-0.75-0.55-2.25-1.67-3-2.23c1.57,6.56,1.24,13.41,3.08,19.92
		c12.33-20.97,28.94-39.94,50.2599-52.06c-9.67,12.67-23.41,21.51-33.02,34.24c-4.07,5.18-7.05,11.11-9.33,17.27
		c1.23-1.2,2.48-2.39,3.74-3.56c1.1,0.79,2.17,1.67,3.37,2.32c2.08,0.57,4.93-0.53,6.3,1.64c3.6,4.46,4.8701,10.22,7.36,15.29
		c0.42-0.11,1.26-0.32,1.67-0.43l0.6-0.11c4.78,2.45,9.36,5.27,14.13,7.76c-3.26,13.57-5.34,27.41-6.74,41.29
		c-1.09,10.97-0.57,22.13-2.91,32.96c-1.3,6.22-4.07,12.14-8.43,16.8c-12.1801-5.03-17.61-18.13-22.55-29.39
		c-7.94-20.75-17.18-41.33-20.68-63.43c-2.12-12.9-0.77-26.38,4.49-38.38C536.64,246.67,549.77,232.48,563.23,219.46z"/>
	<path fill="#0E0000" stroke="#0E0000" stroke-width="0.0938" d="M546.03,259.23c1.02-3.58,3.28-7.06,7.33-7.4
		C552.82,255.63,549.81,258.63,546.03,259.23z"/>
	<path fill="#0E0200" stroke="#0E0200" stroke-width="0.0938" d="M556.05,272.25c1-0.75,2.01-1.51,3.02-2.27
		c0.52,0.17,1.57,0.52,2.09,0.69c0.01,1.65,0.01,3.29,0.02,4.95c-1.41,0.81-2.77,2.06-4.52,1.89
		C556.31,275.77,556.2,274.01,556.05,272.25z"/>
	<path fill="#FF899F" stroke="#FF899F" stroke-width="0.0938" d="M909.5,577.43c11.35,0.73,22.46,3.4,33.62,5.47
		c39.91,8.73,78.91,22.89,113.8199,44.3c28.1801,17.44,53.63,40.27,70.7401,68.9c9.47,16.08,14.8099,34.34,17.5699,52.71
		c1.14,9.35,1.88,19.13-1.01,28.24c-1.5699,4.91-4.98,9.93-10.3199,11.05c-7.6001,1.55-15.0801-1.59-21.49-5.4
		c-6.62-3.6-12.39-8.44-18.3601-12.97c0.41,9.1,1.66,18.45-0.95,27.35c-1.47,4.73-4.96,9.53-10.11,10.44
		c-6.39,1.13-12.5601-1.63-18.08-4.5c-8.2101-4.32-14.92-10.83-22.4501-16.14c1.72,8.92,2.9301,18.12,1.62,27.18
		c-0.9,5.53-3.5699,11.79-9.48,13.42c-7.34,1.72-14.38-2.12-20.44-5.8c-11.19-7.27-21.03-16.34-31.1-25.03
		c1.75,10.34,4.21,20.92,2.04,31.41c-0.95,4.46-3.52,9.2-8.14,10.65c-4.34,1.36-8.9-0.23-12.9-1.91
		c-8.5-3.91-15.52-10.23-22.7-16.07c-29.26-24.31-53.13-54.41-82.87-78.18c-9.66-7.73-20.09-14.48-31.06-20.18
		c-15.48-7.87-32.3-12.96-49.42-15.65c-3.04-0.52-6.3701-0.46-8.96-2.34c2.15-0.06,4.34-0.04,6.49,0.22
		c18.26,2.72,36.26,7.84,52.71,16.3c17.56,8.79,33.06,21.06,47.53,34.22c26.72,24.97,50.5,53.3,80.18,74.98
		c5.62,3.89,11.96,7.73,19.06,7.48c5.2401-0.7,7.88-6.14,8.62-10.84c1.82-11.61-0.87-23.34-3.84-34.52
		c-3.51-12.7599-9.99-24.5099-18.17-34.86c-10.5-13.47-23.56-24.79-37.65-34.37c-34.02-22.62-73.86-35.17-114.03-41.15
		c-1.4399-0.15-2.54-1.17-3.53-2.08c14.2,0.22,27.98,4.47,41.6,8.15c23.06,6.13,45.46,14.95,66.1,26.96
		c22.98,13.27,43.68,31.34,57.56,54.14c4.05,6.53,6.92,13.71,9.17,21.04c1,3.58,4.05,5.93,6.72,8.28
		c8.69,7.36,17.0699,15.19,26.68,21.39c4.79,3.02,9.95,5.9901,15.72,6.45c3.67,0.38,7.67-1.16,9.62-4.41
		c2.84-4.7,3.27-10.36,3.23-15.73c0.12-12.01-2.83-23.8-6.48-35.16c-5.78-17.72-17.28-32.88-29.9-46.32
		c-24.48-24.57-55.54-41.63-87.9901-53.24c-6.2-2.3-12.59-4.01-18.78-6.31c0.74-0.15,2.23-0.46,2.98-0.61
		c35.73,10.76,70.5,27.21,98.27,52.55c10.82,10.02,20.5,21.36,28.14,33.99c5.6001,9.27,9.3201,19.54,11.99,30
		c0.7001,3.79,4.3101,5.75,7,8.06c7.63,6.28,15.66,12.43,25.03,15.89c4.77,1.6,11.09,2.22,14.84-1.84
		c5.05-6.05,5.3601-14.5099,5.3101-22.02c-1.49-18.74-6.24-37.44-15.3-53.99c-16.0499-28.34-41.2799-50.4301-69.04-66.92
		c-29.39-17.43-61.85-29.3-95.1-36.88c-1.42-0.39-2.8-0.83-4.18-1.29c0.78-0.07,2.34-0.22,3.12-0.29c2.49-0.11,4.9,0.74,7.32,1.3
		c39.77,9.86,78.58,25.69,111.57,50.32c13.97,10.49,26.61,22.81,37.14,36.75c12.11,15.55,20.1799,33.99,23.74,53.35
		c0.33,2.03,1.22,3.97,2.96,5.19c7.84,6.43,16.13,12.61,25.5801,16.48c5.58,2.04,12.8999,3.19,17.5299-1.48
		c5.5601-6.01,5.9601-14.8,5.89-22.55c-0.49-19.44-5.9199-38.56-13.9399-56.19c-15.91-30.7-41.74-55.28-70.67-73.7
		c-32.26-20.59-68.33-34.76-105.43-43.83c-13.31-3.33-26.8-6.0099-40.41-7.81C912.33,579.29,910.77,578.54,909.5,577.43z"/>
	<path fill="#F585A1" stroke="#F585A1" stroke-width="0.0938" d="M858.42,609.45c8.07-0.21,15.91,2.05,23.83,3.27
		c10.3,2.39,20.83,4.5,30.5,8.9301c-0.78,0.0699-2.34,0.22-3.12,0.29c-4.96-0.04-9.71-1.79-14.61-2.44
		c-4.6-1.06-9.37-1.25-13.95-2.35c-0.42-0.38-1.28-1.15-1.7-1.53c4.02,0.11,8,0.74,12.01,1.13c-8.03-2.08-16.16-3.89-24.41-4.84
		C864.02,611.53,860.86,611.34,858.42,609.45z"/>
	<path fill="#FA728C" stroke="#FA728C" stroke-width="0.0938" d="M832.45,645.72c1.25-1.11,2.88-1.4399,4.49-1.06
		c14.26,1.76,28.39,4.8,41.97,9.52c4.92,1.74,10.02,3.17,14.54,5.89c-3.37,0.23-6.71,0.74-10.07,0.76
		c-5.25-0.54-10.31-2.19-15.5-3.03c-6.42-1.44-12.99-1.95-19.42-3.26c1.22-1.8,3.4-1.41,5.2599-1.2c10.73,1.36,21.2,4.17,31.88,5.81
		c-11.71-5.34-24.38-8.29-37-10.56C843.23,647.54,837.74,647.14,832.45,645.72z"/>
	<path fill="#ED4161" stroke="#ED4161" stroke-width="0.0938" d="M848.6,648.59c12.62,2.27,25.29,5.22,37,10.56
		c-10.68-1.64-21.15-4.45-31.88-5.81c2.7401-0.31,5.4901-0.57,8.25-0.8C857.52,651.26,852.32,651.69,848.6,648.59z"/>
	<path fill="#EE87A1" stroke="#EE87A1" stroke-width="0.0938" d="M883.38,660.83c3.36-0.02,6.7-0.53,10.07-0.76
		c3.29,0.88,6.21,2.74,9.22,4.32c-0.75,0.15-2.24,0.46-2.98,0.61C894.15,664.09,888.84,662.08,883.38,660.83z"/>
	<path fill="#EF8FAA" stroke="#EF8FAA" stroke-width="0.0938" d="M983.55,882.43c8.4-3.38,16.3-7.85,24.17-12.29
		c8.71,71.14,16.91,142.44,30.55,212.85c2.01,9.89,4.63,19.66,7.58,29.3201c-7.9399-0.9401-15.91,0.2-23.86,0.1499
		c-8.75,0.01-17.49,0.55-26.22,1.01c1.23-45.25-8.84-89.67-13.96-134.4c-3.41-30.68-8.01-61.21-11.66-91.86
		c-10.33-0.28-20.61,0.86-30.92,1c-4.73,0.11-9.44,0.58-14.12,1.15c5.84,46.36,12.27,92.67,20.98,138.58
		c2.12,11.5801,5.19,22.9501,8.3799,34.28c-16.62,0.22-33.2,1.13-49.81,1.55c1.21-45.6-9.0099-90.34-14.14-135.41
		c-1.53-14.45-3.41-28.87-5.37-43.26c3.79,1.83,7.61,3.88,11.84,4.48c13.71,1.06,27.29-1.81,40.98-1.92
		c11.04-0.47,22.05-1.54,33.11-1.65C975.49,886,979.53,884.02,983.55,882.43z"/>
	<path fill="#EF8FAA" stroke="#EF8FAA" stroke-width="0.0938" d="M892.69,1173.62c9.43,0.9301,18.92,0.71,28.38,1.23
		c9.14,0.65,18.31,0.61,27.47,0.9301c-5.8,30.5399-9.61,61.4399-12.35,92.4099c-4.41,50.13-5.52,100.5-4.59,150.8101
		c0.3,25.6899,2.4,51.3199,2.22,77.03c0.52,48.27-1.91,96.75,3.81,144.8099c2.55,20.01,6.51,40.05,14.34,58.73
		c-19.74-5.9299-39.54-11.7-59.39-17.2599c8.15-23.53,7.45-48.78,7.83-73.3301c0.6801-26,1.75-51.99,1.9901-78
		c1.02-75.99,0.09-151.99,0.15-227.99c0.17-32.39-1.12-64.8-4.2-97.05C897.24,1195.04,894.76,1184.35,892.69,1173.62z"/>
	<path fill="#EF8FAA" stroke="#EF8FAA" stroke-width="0.0938" d="M983.8,1223.51c11.06,0.1,22.1,0.91,33.17,1.04
		c7.66,0.0499,15.35,1.5299,22.97,0.1399c-9.3099,47.2101-13.5699,95.28-15.97,143.29c-2.27,47.98-2.15,96.0601,0.24,144.03
		c0.89,27.34,1.3501,54.7,0.62,82.05c-0.01,23.34,0.17,46.7,1.49,70c1.8601,28.9099,5.8601,58.0699,16.6001,85.1599
		c-19.6801-5.99-39.4901-11.59-59.2501-17.3099c10.02-29.25,6.74-60.63,8.39-90.98c1.74-53.62,2.12-107.27,2.12-160.92
		c-0.59-49-0.31-98.02-0.59-147.03c-0.55-26.53-1.64-53.09-4.35-79.5C987.98,1243.4,985.83,1233.45,983.8,1223.51z"/>
	<path fill="#F53A67" stroke="#F53A67" stroke-width="0.0938" d="M904.66,1063.77c16.61-0.42,33.19-1.3301,49.81-1.55
		c2.58,9.12,5.05,18.29,6.85,27.62c1.3,7.9701,2.73,16.12,1.48,24.2101c-1.15,9.87-4.21,19.36-6.85,28.8999
		c-3.1,10.79-5.27,21.8101-7.41,32.8301c-9.16-0.3201-18.33-0.28-27.47-0.9301c-9.46-0.52-18.95-0.2999-28.38-1.23l-0.14-0.02
		c-2.13-11.75-4.67-23.5499-4.36-35.5499C888.24,1112.2,904.57,1089.62,904.66,1063.77z"/>
	<path fill="#F53A67" stroke="#F53A67" stroke-width="0.0938" d="M995.77,1113.47c8.73-0.46,17.47-1,26.22-1.01
		c7.95,0.05,15.92-1.09,23.86-0.1499c3.54,14.0499,7.91,28.09,8.41,42.6899c0.47,16.21-6.08,31.37-9.7,46.91
		c-1.7201,7.5499-3.4401,15.12-4.6201,22.7799c-7.62,1.39-15.3099-0.09-22.97-0.1399c-11.0699-0.13-22.11-0.9401-33.17-1.04
		c-3.1-14.92-5.84-30.27-3.79-45.52C983.26,1155.99,995.61,1136.04,995.77,1113.47z"/>
	<path fill="#D0183A" stroke="#D0183A" stroke-width="0.0938" d="M892.58,1682.3101c19.85,5.5599,39.65,11.33,59.39,17.2599
		c2.25,5.2301,5.29,10.0801,7.71,15.2301c0.25,3.84-0.08,7.76-1.32,11.4399c-1.84,2.34-4.13,4.28-6.28,6.33
		c9.46,3.0901,19.33,5.92,29.41,4.8301c0.73-1.84,1.49-3.65,2.18-5.49c19.76,5.72,39.57,11.3199,59.2501,17.3099
		c2.86,5.7101,6.2,11.23,8.6699,17.15c2.15,4.71-1.65,9.23-4.86,12.3199c-6.46,6.1001-14.24,12.02-16.2,21.2201
		c-0.9501,6.3099-7.1801,9.47-12.22,12.25c-18.01,8.9299-37.68,13.9199-57.27,18.0299c-13.5099,2.66-27.25,4.6801-41.05,4.39
		c-5.28-0.1799-10.75-0.58-15.52-3c-10.48-5.24-20.64-11.21-31.6-15.3999c-9.15-3.6101-19.15-4.0801-28.86-3.7401
		c-8.25,0.03-16.51,1.4301-24.73,0.17c-9.3-0.7-18.02-4.83-25.02-10.86c0.93-5.63,5.01-10.3,10.38-12.13
		c14.44-5.1899,30.23-1.23,44.92-5.0599c-11.18-0.4501-22.72,1.95-33.63-1.42c-15.84-6.98-30.48-18.04-48.16-19.8
		c-15.21-2.11-30.71,2.3301-45.78-1.33c-7.04-1.54-13.42-5.23-18.85-9.89c1.03-6.33,6.13-11.15,12.21-12.71
		c12.96-3.5801,26.66-1.5601,39.83-3.62c-0.91-6.12,5.08-9.48,9.51-12.13c13.91-7.5901,29.21-12.0901,44.28-16.7101
		c26.88-7.6899,54.1201-14.1,81.57-19.38C891.23,1685.8101,891.9,1684.04,892.58,1682.3101z"/>
	<path fill="#984154" stroke="#984154" stroke-width="0.0938" d="M958.36,1726.24c1.24-3.6799,1.57-7.6,1.32-11.4399
		C962.05,1718.48,961.22,1723.08,958.36,1726.24z"/>
</g>
</svg>
